<svg width="110" height="32" viewBox="0 0 110 32" fill="none" xmlns="http://www.w3.org/2000/svg">
<g clip-path="url(#clip0_4_38)">
<path fill-rule="evenodd" clip-rule="evenodd" d="M11.6826 18.2544C12.2883 18.7081 13.1416 18.9935 13.2153 19.8066C12.2962 19.5772 12.2778 20.7369 11.6088 21.03C10.9689 21.3104 9.71003 21.0351 8.93575 21.4225L8.47224 23.7878C8.46434 24.165 8.56705 24.3919 8.55652 24.7283C5.89396 24.9602 -1.23252 23.8719 2.4387 20.0997C3.43683 19.0751 4.93534 18.155 6.2179 17.5076C7.11068 17.059 9.93125 15.7056 10.803 15.6011C11.3508 16.1746 11.1927 16.1822 12.0487 16.4065C12.1013 17.0667 11.6299 17.714 11.68 18.2544H11.6826ZM19.9125 16.1083L20.1917 16.432C20.3998 16.6538 20.9686 17.4209 21.0634 17.686C20.6447 18.1626 20.3497 18.4277 20.4998 19.1643C20.6052 19.6792 21.0213 20.0105 21.4901 20.1838L22.1116 22.8702C21.0977 23.6017 20.3339 23.1735 19.665 24.6238C18.817 26.4615 19.9784 26.3978 20.3866 27.4071C20.168 27.6772 20.0548 27.7512 19.6992 27.8098C19.2778 27.8786 19.3226 27.769 19.0145 27.5549C18.6326 27.2873 18.1507 26.9891 17.7003 26.8438C16.3177 26.4029 15.6119 26.9126 15.2353 28.1819L13.4418 28.1054C13.297 28.3297 13.139 28.7095 13.0916 28.9848C13.0099 29.4741 13.2469 29.5251 13.1995 30.04L12.6333 30.0451C11.938 29.3161 11.8459 29.3798 10.9373 28.9695C11.0137 28.3654 11.8037 28.345 11.0558 27.5192C10.5475 26.9585 10.0893 27.1726 9.4335 26.9559C9.38346 26.5354 9.45194 26.2907 9.53885 25.9007C9.66263 25.363 9.46511 25.2279 9.48091 24.7742L9.36766 24.7054C9.37293 24.2542 9.03847 23.4692 9.59415 21.9807C10.2578 21.8711 11.2112 21.9323 11.7774 21.7488C12.5701 21.4888 12.6096 21.1651 12.9335 20.5406C13.5103 20.5559 13.6104 20.403 14.0238 20.0946C14.066 18.8967 13.4049 18.5399 12.5622 17.9613C12.5569 17.8568 12.8809 16.2842 12.9256 16.195C12.9967 16.0522 13.2601 15.907 13.4181 15.6011C13.6209 15.2111 13.5419 15.1041 13.5735 14.6657L14.619 14.3395C14.2819 14.0591 14.2793 14.2451 14.2266 13.7226C13.7947 13.7328 13.5445 13.9622 13.081 13.9062L12.3383 13.5697C12.0381 13.2639 11.5377 8.31922 11.572 7.71006L12.204 7.5342C12.6017 7.75594 13.455 8.5894 13.8263 8.93858C14.1582 9.25208 15.0351 10.2079 15.3564 10.4118L16.0385 10.1212C16.0175 9.69047 13.3207 7.44754 12.8519 6.89955C12.9414 6.42293 13.0494 6.18844 12.8308 5.70672C12.6412 5.29127 12.3989 5.27088 12.1988 4.99561L13.3049 3.72376C14.5005 3.71357 14.9456 4.19529 16.1544 3.61417C17.8083 2.81895 18.8591 1.88864 20.3681 1.16988C21.4427 0.657576 21.9799 0.632089 23.165 0.810504C27.4393 1.4528 27.9502 3.51731 29.7279 4.27175C30.5048 4.6031 30.4917 4.00413 31.1737 4.35077C31.5583 4.54702 31.8585 4.89876 32.0718 5.0058C32.5695 6.93014 35.4059 6.54017 36.8149 7.33539C36.7148 7.74065 35.8931 8.4849 35.4296 8.65312C35.0662 8.78565 34.55 8.83153 34.2234 8.65057C33.7125 8.36765 33.5361 8.5843 33.0173 8.60979C32.3141 8.19943 32.5327 7.77888 32.085 7.16208C31.7005 6.62938 30.784 6.74917 30.1651 6.74153C28.9115 6.72369 26.8626 6.77211 25.6643 7.02444C25.659 7.02699 24.1789 10.0269 26.5939 10.4271C26.536 10.5622 26.2674 10.8272 26.1489 11.0235C25.983 11.2962 25.9329 11.4568 25.8065 11.7575C25.0085 11.8569 24.1526 11.862 23.352 11.9563C22.5698 12.0481 21.7877 12.1679 20.9844 12.2418L20.8896 12.4202L20.7369 12.2545L20.6315 11.7932L21.0028 11.3064C20.9028 11.0286 20.3313 10.4653 20.0284 10.3735C19.3411 10.8859 19.6413 10.7992 18.8143 10.5112L18.6669 9.76184L17.3448 9.77203L17.2289 10.501C16.1807 11.0821 16.3783 10.3481 15.9358 10.3888C15.7014 10.4882 15.1089 11.077 15.0193 11.3268L15.4328 11.8722L15.1774 12.4839L14.4004 12.6573L14.4162 13.9342L15.122 14.026L15.3907 14.7167L15.0457 15.2621C15.1537 15.4941 15.6988 16.0242 15.9385 16.144C16.2413 16.0777 16.2519 15.9503 16.5336 15.8203L17.2236 16.0879L17.3632 16.7557L18.7037 16.7302L18.7985 16.1185L19.5465 15.8101L19.9204 16.1109L19.9125 16.1083ZM20.7816 15.8509L20.7369 15.5527L21.016 15.2927L20.6868 14.7829C20.7 14.5204 20.8159 14.263 20.9396 14.0158L21.5085 13.9062C21.6349 13.7966 21.5954 14.026 21.6323 13.7048L21.6507 12.9708C22.7147 12.8178 24.4291 12.5426 25.4773 12.5757C25.4062 13.037 24.5266 13.1849 24.1184 13.3301C21.1556 14.3726 21.5954 14.472 21.3189 16.5977L20.7816 15.8509ZM21.3452 30.6313C21.2109 30.4274 19.8651 29.6347 19.5728 29.5302C19.8019 29.859 20.8264 30.5293 21.232 30.7103C22.2406 31.1614 22.8411 31.661 24.0315 31.9057C29.0695 32.943 26.0514 24.8532 25.5826 24.3638C25.5747 23.7954 23.8655 20.7089 23.3704 19.855C22.9886 19.1949 23.7339 18.7285 22.9675 17.9078C22.6462 17.5637 22.504 17.6223 22.1406 17.4362C22.0984 15.9732 21.7692 14.9945 23.3283 14.4083C24.703 13.8909 25.3799 13.873 26.2094 13.0217C27.4104 13.8985 28.0187 13.664 28.7719 12.5808C30.5259 12.4839 36.5884 13.4015 33.7204 16.8678C32.9699 17.7727 32.006 18.285 31.8558 18.5322C32.3984 18.3716 36.3171 15.8407 35.2005 13.7991C34.2814 12.1169 30.5996 11.8544 28.8088 11.7473C28.4085 11.2631 28.6481 11.314 28.0029 10.8808L28.2478 10.1671C27.5842 9.65989 26.7783 9.85869 26.299 9.57578C25.7933 9.27502 26.0593 8.1561 26.2305 7.71006C27.3498 7.51636 30.281 7.36598 31.3528 7.5393C31.8743 7.89613 31.5793 8.64292 32.5037 9.18071C33.1647 9.56558 33.1042 9.28776 33.6098 9.29031C34.1234 9.29031 35.269 10.0881 36.7517 8.66076L38.0026 7.18502C37.202 6.33627 34.6949 6.09668 33.6836 5.68888C32.8303 5.34479 33.0989 5.09756 32.696 4.77896C32.6012 4.1749 31.1606 3.33635 30.4837 3.51731C30.0624 3.63201 30.202 3.8563 29.2934 3.13245C27.1444 1.42731 26.6572 0.693259 23.5153 0.12488C20.0864 -0.497023 18.9407 1.39418 15.9595 2.88267C14.7481 3.48673 14.087 2.83934 12.8545 2.99481C12.3278 3.72377 11.5351 4.78151 10.6476 5.13324C10.2236 4.93954 9.54675 4.42468 9.0885 4.15961C7.61369 3.30322 4.8695 2.03392 3.92141 4.15196C3.43156 5.24794 3.79236 7.25383 4.13736 8.3804C4.32698 9.00485 5.18816 11.4874 5.53053 11.8595C5.48049 11.5715 4.76679 9.88928 4.5166 8.81624C2.72576 1.14184 9.86804 5.59712 10.0682 5.91062C10.1367 6.29039 10.0471 6.57076 10.2473 6.94288C10.4027 7.23089 10.6028 7.30226 10.7793 7.53675C10.8451 8.56646 10.9531 9.7338 11.0611 10.761C11.1164 11.2682 11.1743 11.7805 11.2533 12.2851C11.3218 12.7261 11.5246 13.2996 11.5351 13.7074C10.7819 14.1865 10.9004 14.5561 10.6476 14.7626C10.458 14.918 5.07755 16.4397 1.57752 19.3962C-0.21332 20.9102 -0.850648 22.7606 1.7171 23.928C3.76076 24.8583 6.38118 24.7538 8.64079 24.8175L8.80144 25.2916C8.86728 25.9849 8.56442 26.594 8.69873 27.4682C9.29919 27.7868 10.1604 27.7231 10.5054 28.0468C10.4448 28.4342 9.90228 28.6942 9.94969 29.3722C10.6739 29.7239 11.2033 29.7214 11.8037 30.2745C12.5438 30.9601 12.7413 30.9703 13.7947 30.6466C14.1476 29.6678 13.7763 29.5684 13.9027 28.9058C14.5269 28.7758 15.2037 29.0077 15.8384 28.9389C16.0043 28.1972 16.1518 27.2185 17.2236 27.4581C17.9031 27.6084 18.5668 28.1309 19.0909 28.5489C19.9389 28.6228 20.6552 28.4037 21.1056 27.7231C21.5138 27.1063 20.4524 26.4462 20.2602 25.9925C19.9915 25.3579 20.4682 24.4224 21.0871 24.1548C21.7666 23.8617 22.3986 23.6553 22.9701 23.2143C22.9833 22.4115 22.2406 20.923 22.3802 20.166C22.7647 20.1252 22.6989 20.2017 23.1914 21.0988C23.3783 21.4429 23.5785 21.8252 23.7602 22.1744C23.9972 22.6358 24.5951 24.1344 24.8136 24.425C25.0217 25.2788 25.4352 26.1199 25.638 27.0401C26.2279 29.6908 26.0067 32.2319 22.5224 31.1054C22.1406 30.983 21.6691 30.7052 21.3505 30.6287L21.3452 30.6313ZM16.0886 13.687C15.9042 12.642 16.5521 11.6046 17.6266 11.4287C18.7037 11.2503 19.823 11.8952 19.9757 12.9249C20.3839 15.6393 16.4941 15.986 16.0859 13.687H16.0886Z" fill="#0D9347"/>
</g>
<path d="M45.15 18.525L45.045 16.215L50.55 10.5H52.74L48.165 15.36L47.085 16.545L45.15 18.525ZM43.41 21V10.5H45.36V21H43.41ZM50.73 21L46.71 16.215L48 14.79L53.01 21H50.73ZM52.4133 21L57.1383 10.5H59.0583L63.7983 21H61.7583L57.6933 11.535H58.4733L54.4233 21H52.4133ZM54.5883 18.57L55.1133 17.04H60.7833L61.3083 18.57H54.5883ZM66.7363 21V12.15H63.2563V10.5H72.1663V12.15H68.6863V21H66.7363ZM73.6297 21V10.5H78.2197C79.3597 10.5 80.3597 10.72 81.2197 11.16C82.0797 11.6 82.7497 12.21 83.2297 12.99C83.7097 13.77 83.9497 14.69 83.9497 15.75C83.9497 16.8 83.7097 17.72 83.2297 18.51C82.7497 19.29 82.0797 19.9 81.2197 20.34C80.3597 20.78 79.3597 21 78.2197 21H73.6297ZM75.5797 19.35H78.1297C78.9197 19.35 79.5997 19.2 80.1697 18.9C80.7497 18.6 81.1947 18.18 81.5047 17.64C81.8247 17.1 81.9847 16.47 81.9847 15.75C81.9847 15.02 81.8247 14.39 81.5047 13.86C81.1947 13.32 80.7497 12.9 80.1697 12.6C79.5997 12.3 78.9197 12.15 78.1297 12.15H75.5797V19.35ZM86.0223 21V10.5H87.9723V21H86.0223ZM95.6723 21.15C94.8723 21.15 94.1273 21.02 93.4373 20.76C92.7573 20.49 92.1623 20.115 91.6523 19.635C91.1523 19.145 90.7623 18.57 90.4823 17.91C90.2023 17.25 90.0623 16.53 90.0623 15.75C90.0623 14.97 90.2023 14.25 90.4823 13.59C90.7623 12.93 91.1573 12.36 91.6673 11.88C92.1773 11.39 92.7723 11.015 93.4523 10.755C94.1323 10.485 94.8773 10.35 95.6873 10.35C96.5473 10.35 97.3323 10.5 98.0423 10.8C98.7523 11.09 99.3523 11.525 99.8423 12.105L98.5823 13.29C98.2023 12.88 97.7773 12.575 97.3073 12.375C96.8373 12.165 96.3273 12.06 95.7773 12.06C95.2273 12.06 94.7223 12.15 94.2623 12.33C93.8123 12.51 93.4173 12.765 93.0773 13.095C92.7473 13.425 92.4873 13.815 92.2973 14.265C92.1173 14.715 92.0273 15.21 92.0273 15.75C92.0273 16.29 92.1173 16.785 92.2973 17.235C92.4873 17.685 92.7473 18.075 93.0773 18.405C93.4173 18.735 93.8123 18.99 94.2623 19.17C94.7223 19.35 95.2273 19.44 95.7773 19.44C96.3273 19.44 96.8373 19.34 97.3073 19.14C97.7773 18.93 98.2023 18.615 98.5823 18.195L99.8423 19.395C99.3523 19.965 98.7523 20.4 98.0423 20.7C97.3323 21 96.5423 21.15 95.6723 21.15ZM103.724 21V12.15H100.244V10.5H109.154V12.15H105.674V21H103.724Z" fill="#0D9347"/>
<defs>
<clipPath id="clip0_4_38">
<rect width="38" height="32" fill="white"/>
</clipPath>
</defs>
</svg>
